<?xml version="1.0" encoding="UTF-8"?>
<svg version="1.1" xmlns="http://www.w3.org/2000/svg" width="3429" height="3429">
<path d="M0 0 C3.89081997 0.00564157 7.78163558 0.00846124 11.67245865 0.0110817 C47.54519973 0.04620813 83.30477687 0.25588595 119.08526993 3.06482315 C122.51328187 3.33209908 125.94212323 3.58594567 129.37128067 3.83807755 C181.2759851 7.69469615 232.98303025 13.81883886 284.33319473 22.31805801 C285.23803604 22.46760941 286.14287735 22.6171608 287.07513809 22.77124405 C366.95099926 36.02881793 445.82191149 54.84859439 522.93445206 79.55170059 C525.31604432 80.31257875 527.69947251 81.06738079 530.08368301 81.82001114 C594.68571638 102.22025623 657.75585659 127.10785137 719.33319473 155.31805801 C720.02705276 155.63522781 720.7209108 155.95239761 721.43579483 156.27917862 C740.84225592 165.15518122 759.9860452 174.54673758 779.08319473 184.06805801 C780.12834244 184.58795303 781.17349014 185.10784805 782.25030899 185.64349747 C795.98119047 192.48216972 809.5333282 199.58505127 822.95788956 207.00690079 C825.68265234 208.51095696 828.41489443 210.00083747 831.14903641 211.48775101 C847.04711493 220.13745522 862.68223169 229.14549451 878.20526505 238.4513588 C881.17407805 240.22309968 884.15285297 241.97615001 887.13788223 243.72040176 C899.1412267 250.73719051 910.91777442 258.05036204 922.60956192 265.57391739 C925.27184502 267.27877132 927.94460916 268.96558433 930.62225723 270.64618301 C958.91651313 288.4334468 986.33982224 307.62319712 1013.33319473 327.31805801 C1014.08922989 327.86929337 1014.84526505 328.42052872 1015.62421036 328.98846817 C1039.39938 346.34914912 1062.81951477 364.22715795 1085.58905411 382.88983536 C1087.16228397 384.17810449 1088.73967721 385.46128526 1090.31756973 386.74383926 C1095.7649847 391.17576792 1101.14472832 395.68061085 1106.49359512 400.23041153 C1109.94498161 403.16114342 1113.43555664 406.03535032 1116.95819473 408.88055801 C1121.65675424 412.70069118 1126.11533239 416.73517057 1130.56756973 420.83758926 C1133.33837074 423.32270034 1136.18370835 425.67250135 1139.08319473 428.00555801 C1142.84762741 431.04380226 1146.31526895 434.181321 1149.67694473 437.65399551 C1152.02510489 440.0132319 1154.542073 442.15453617 1157.05975723 444.32977676 C1161.90225675 448.56488373 1166.61032222 452.95054076 1171.33319473 457.31805801 C1171.94711075 457.88540665 1172.56102676 458.45275528 1173.1935463 459.0372963 C1186.75011003 471.58140781 1186.75011003 471.58140781 1193.11053848 478.15790176 C1195.01091861 480.00484414 1196.95096046 481.72430858 1198.96014786 483.44940567 C1203.32356981 487.25779033 1207.43639519 491.27666313 1211.52460098 495.37665176 C1212.27354126 496.12463531 1213.02248154 496.87261887 1213.79411697 497.64326859 C1215.36590698 499.21438266 1216.93645322 500.78674194 1218.50580215 502.36029434 C1220.88920777 504.74905647 1223.27790541 507.13243247 1225.66717911 509.51532364 C1227.2033071 511.05211252 1228.73912482 512.58921161 1230.27460098 514.12665176 C1230.97895782 514.82898438 1231.68331467 515.53131699 1232.40901566 516.2549324 C1236.36228219 520.22667725 1240.14107878 524.29387309 1243.7861824 528.55086136 C1246.1704485 531.27447706 1248.74052199 533.79470808 1251.33319473 536.31805801 C1255.26096182 540.14080459 1258.93073177 544.10210632 1262.51678848 548.24774551 C1265.53422649 551.68697593 1268.68712019 554.99684117 1271.83319473 558.31805801 C1276.24182844 562.97212082 1280.56330314 567.67723416 1284.76581192 572.51874161 C1286.71288427 574.75393214 1288.70813942 576.94275805 1290.70819473 579.13055801 C1293.837423 582.59335884 1296.83819822 586.12484805 1299.77069473 589.75555801 C1302.84656061 593.55893304 1306.02072639 597.21888453 1309.33319473 600.81805801 C1313.75099332 605.62885096 1317.90562311 610.59813612 1322.00506973 615.68085098 C1324.08520366 618.2450749 1326.1895103 620.78923425 1328.29169083 623.335392 C1330.71182604 626.26706029 1333.12675373 629.20299494 1335.54120255 632.13934708 C1336.70641837 633.55602092 1337.87239292 634.97207116 1339.03924942 636.38739395 C1345.463701 644.18662529 1351.72664659 652.06925486 1357.7482338 660.18426895 C1361.4937594 665.22641675 1365.33352964 670.1871678 1369.20819473 675.13055801 C1376.44431153 684.38568507 1383.4202838 693.81999197 1390.33319473 703.31805801 C1390.87830704 704.06555313 1391.42341934 704.81304825 1391.9850502 705.58319473 C1395.79331442 710.80997732 1399.5716183 716.05759388 1403.33319473 721.31805801 C1403.83125626 722.01221817 1404.32931778 722.70637833 1404.84247208 723.42157364 C1428.45903594 756.42489656 1450.64461816 790.62515505 1471.56805801 825.38934708 C1473.38790002 828.4088249 1475.21746751 831.422262 1477.04803848 834.43524551 C1485.15614626 847.81666363 1492.95247146 861.34361852 1500.51776505 875.03876114 C1502.39176715 878.42386015 1504.27952181 881.80102504 1506.16913223 885.17743301 C1515.90711686 902.61383833 1525.16986374 920.2714125 1534.19983292 938.08386612 C1535.36159761 940.3740485 1536.52616616 942.66278952 1537.69110489 944.9513588 C1548.14474304 965.50698123 1558.18082629 986.19546907 1567.53583145 1007.27460098 C1569.0298957 1010.64094146 1570.53819781 1014.0006742 1572.0505867 1017.35881424 C1608.10149255 1097.47441938 1637.20389188 1180.59641749 1660.33319473 1265.31805801 C1660.57340347 1266.19403641 1660.81361221 1267.0700148 1661.06110001 1267.97253799 C1689.27178393 1370.87121301 1706.74234402 1476.59350974 1715.30585098 1582.90008926 C1715.39919975 1584.05356102 1715.39919975 1584.05356102 1715.49443436 1585.23033524 C1716.22110364 1594.58481432 1716.77017089 1603.95259026 1717.33319473 1613.31805801 C1717.38088438 1614.10918802 1717.42857403 1614.90031803 1717.47770882 1615.71542168 C1719.34991549 1647.13598202 1719.69760023 1678.51422847 1719.65125275 1709.98486328 C1719.64561118 1713.87568325 1719.64279151 1717.76649886 1719.64017105 1721.65732193 C1719.60504461 1757.53006301 1719.3953668 1793.28964015 1716.5864296 1829.07013321 C1716.31915366 1832.49814516 1716.06530708 1835.92698651 1715.8131752 1839.35614395 C1711.9565566 1891.26084838 1705.83241389 1942.96789353 1697.33319473 1994.31805801 C1697.18364334 1995.22289932 1697.03409195 1996.12774063 1696.8800087 1997.06000137 C1683.62243482 2076.93586254 1664.80265836 2155.80677478 1640.09955215 2232.91931534 C1639.338674 2235.3009076 1638.58387196 2237.68433579 1637.83124161 2240.0685463 C1617.43099652 2304.67057966 1592.54340138 2367.74071987 1564.33319473 2429.31805801 C1564.01602493 2430.01191605 1563.69885513 2430.70577408 1563.37207413 2431.42065811 C1554.49607153 2450.8271192 1545.10451516 2469.97090848 1535.58319473 2489.06805801 C1535.06329971 2490.11320572 1534.54340469 2491.15835342 1534.00775528 2492.23517227 C1527.16908303 2505.96605375 1520.06620147 2519.51819148 1512.64435196 2532.94275284 C1511.14029578 2535.66751562 1509.65041527 2538.39975771 1508.16350174 2541.13389969 C1499.51379753 2557.03197821 1490.50575823 2572.66709498 1481.19989395 2588.19012833 C1479.42815307 2591.15894133 1477.67510274 2594.13771625 1475.93085098 2597.12274551 C1468.91406224 2609.12608998 1461.60089071 2620.9026377 1454.07733536 2632.5944252 C1452.37248142 2635.2567083 1450.68566841 2637.92947244 1449.00506973 2640.60712051 C1431.21780594 2668.90137641 1412.02805562 2696.32468552 1392.33319473 2723.31805801 C1391.78195938 2724.07409317 1391.23072403 2724.83012833 1390.66278458 2725.60907364 C1373.30210363 2749.38424328 1355.42409479 2772.80437805 1336.76141739 2795.57391739 C1335.47314825 2797.14714725 1334.18996748 2798.72454049 1332.90741348 2800.30243301 C1328.47548483 2805.74984798 1323.9706419 2811.1295916 1319.42084122 2816.4784584 C1316.49010932 2819.92984489 1313.61590243 2823.42041992 1310.77069473 2826.94305801 C1306.95056157 2831.64161752 1302.91608217 2836.10019568 1298.81366348 2840.55243301 C1296.32855241 2843.32323402 1293.9787514 2846.16857163 1291.64569473 2849.06805801 C1288.60745049 2852.83249069 1285.46993174 2856.30013223 1281.99725723 2859.66180801 C1279.63802085 2862.00996817 1277.49671657 2864.52693628 1275.32147598 2867.04462051 C1271.08636901 2871.88712003 1266.70071198 2876.59518551 1262.33319473 2881.31805801 C1261.7658461 2881.93197403 1261.19849747 2882.54589005 1260.61395645 2883.17840958 C1248.06984494 2896.73497332 1248.06984494 2896.73497332 1241.49335098 2903.09540176 C1239.64640861 2904.99578189 1237.92694416 2906.93582374 1236.20184708 2908.94501114 C1232.39346242 2913.30843309 1228.37458962 2917.42125847 1224.27460098 2921.50946426 C1223.52661743 2922.25840454 1222.77863388 2923.00734482 1222.00798416 2923.77898026 C1220.43687009 2925.35077026 1218.86451081 2926.9213165 1217.2909584 2928.49066544 C1214.90219628 2930.87407105 1212.51882028 2933.26276869 1210.13592911 2935.65204239 C1208.59914023 2937.18817038 1207.06204113 2938.7239881 1205.52460098 2940.25946426 C1204.82226837 2940.96382111 1204.11993576 2941.66817795 1203.39632034 2942.39387894 C1199.4245755 2946.34714547 1195.35737966 2950.12594206 1191.10039139 2953.77104568 C1188.37677569 2956.15531178 1185.85654467 2958.72538528 1183.33319473 2961.31805801 C1179.51044815 2965.24582511 1175.54914643 2968.91559505 1171.40350723 2972.50165176 C1167.96427682 2975.51908977 1164.65441157 2978.67198347 1161.33319473 2981.81805801 C1156.67913193 2986.22669172 1151.97401859 2990.54816642 1147.13251114 2994.7506752 C1144.89732061 2996.69774755 1142.7084947 2998.6930027 1140.52069473 3000.69305801 C1137.05789391 3003.82228628 1133.5264047 3006.8230615 1129.89569473 3009.75555801 C1126.09231971 3012.83142389 1122.43236822 3016.00558967 1118.83319473 3019.31805801 C1114.02240179 3023.73585661 1109.05311663 3027.89048639 1103.97040176 3031.98993301 C1101.40617784 3034.07006694 1098.8620185 3036.17437358 1096.31586075 3038.27655411 C1093.38419246 3040.69668932 1090.44825781 3043.11161701 1087.51190567 3045.52606583 C1086.09523183 3046.69128165 1084.67918159 3047.8572562 1083.2638588 3049.0241127 C1075.46462746 3055.44856428 1067.58199788 3061.71150987 1059.4669838 3067.73309708 C1054.424836 3071.47862268 1049.46408495 3075.31839293 1044.52069473 3079.19305801 C1035.26556768 3086.42917481 1025.83126077 3093.40514708 1016.33319473 3100.31805801 C1015.58569962 3100.86317032 1014.8382045 3101.40828262 1014.06805801 3101.96991348 C1008.84127543 3105.77817771 1003.59365887 3109.55648158 998.33319473 3113.31805801 C997.63903458 3113.81611954 996.94487442 3114.31418106 996.22967911 3114.82733536 C963.22635619 3138.44389922 929.0260977 3160.62948144 894.26190567 3181.5529213 C891.24242784 3183.3727633 888.22899075 3185.20233079 885.21600723 3187.03290176 C871.83458912 3195.14100954 858.30763422 3202.93733474 844.61249161 3210.50262833 C841.2273926 3212.37663043 837.85022771 3214.26438509 834.47381973 3216.15399551 C817.03741441 3225.89198014 799.37984025 3235.15472702 781.56738663 3244.1846962 C779.27720425 3245.34646089 776.98846323 3246.51102944 774.69989395 3247.67596817 C754.14427151 3258.12960632 733.45578368 3268.16568957 712.37665176 3277.52069473 C709.01031129 3279.01475898 705.65057854 3280.52306109 702.29243851 3282.03544998 C622.17683336 3318.08635583 539.05483526 3347.18875516 454.33319473 3370.31805801 C453.01922714 3370.67837112 453.01922714 3370.67837112 451.67871475 3371.04596329 C348.78003973 3399.25664721 243.057743 3416.7272073 136.75116348 3425.29071426 C135.59769173 3425.38406303 135.59769173 3425.38406303 134.42091751 3425.47929764 C125.06643842 3426.20596692 115.69866248 3426.75503417 106.33319473 3427.31805801 C105.54206472 3427.36574766 104.75093472 3427.41343731 103.93583107 3427.4625721 C72.51527073 3429.33477877 41.13702428 3429.68246351 9.66638947 3429.63611603 C5.77556949 3429.63047446 1.88475388 3429.62765479 -2.00606918 3429.62503433 C-37.87881026 3429.5899079 -73.63838741 3429.38023008 -109.41888046 3426.57129288 C-112.84689241 3426.30401694 -116.27573377 3426.05017036 -119.7048912 3425.79803848 C-171.60959563 3421.94141988 -223.31664079 3415.81727717 -274.66680527 3407.31805801 C-275.57164658 3407.16850662 -276.47648788 3407.01895523 -277.40874863 3406.86487198 C-357.28460979 3393.6072981 -436.15552203 3374.78752164 -513.26806259 3350.08441544 C-515.64965486 3349.32353728 -518.03308305 3348.56873524 -520.41729355 3347.81610489 C-585.01932692 3327.4158598 -648.08946712 3302.52826466 -709.66680527 3274.31805801 C-710.3606633 3274.00088821 -711.05452133 3273.68371841 -711.76940536 3273.35693741 C-731.17586645 3264.48093481 -750.31965573 3255.08937844 -769.41680527 3245.56805801 C-770.46195297 3245.04816299 -771.50710068 3244.52826797 -772.58391953 3243.99261856 C-786.314801 3237.15394631 -799.86693874 3230.05106476 -813.29150009 3222.62921524 C-816.01626288 3221.12515907 -818.74850496 3219.63527856 -821.48264694 3218.14836502 C-837.38072547 3209.49866081 -853.01584223 3200.49062151 -868.53887558 3191.18475723 C-871.50768858 3189.41301635 -874.4864635 3187.65996602 -877.47149277 3185.91571426 C-889.47483724 3178.89892552 -901.25138495 3171.58575399 -912.94317245 3164.06219864 C-915.60545556 3162.3573447 -918.27821969 3160.6705317 -920.95586777 3158.98993301 C-949.25012366 3141.20266922 -976.67343278 3122.0129189 -1003.66680527 3102.31805801 C-1004.42284042 3101.76682266 -1005.17887558 3101.21558731 -1005.95782089 3100.64764786 C-1029.73299053 3083.28696691 -1053.1531253 3065.40895807 -1075.92266464 3046.74628067 C-1077.49589451 3045.45801153 -1079.07328775 3044.17483076 -1080.65118027 3042.89227676 C-1086.09859524 3038.46034811 -1091.47833886 3033.95550518 -1096.82720566 3029.4057045 C-1100.27859214 3026.4749726 -1103.76916717 3023.60076571 -1107.29180527 3020.75555801 C-1111.99036478 3016.93542485 -1116.44894293 3012.90094545 -1120.90118027 3008.79852676 C-1123.67198127 3006.31341569 -1126.51731888 3003.96361468 -1129.41680527 3001.63055801 C-1133.18123794 2998.59231377 -1136.64887949 2995.45479502 -1140.01055527 2991.98212051 C-1142.35871543 2989.62288413 -1144.87568354 2987.48157985 -1147.39336777 2985.30633926 C-1152.23586729 2981.07123229 -1156.94393276 2976.68557527 -1161.66680527 2972.31805801 C-1162.28072128 2971.75070938 -1162.8946373 2971.18336075 -1163.52715683 2970.59881973 C-1177.08372057 2958.05470822 -1177.08372057 2958.05470822 -1183.44414902 2951.47821426 C-1185.34452915 2949.63127189 -1187.28457099 2947.91180745 -1189.29375839 2946.18671036 C-1193.65718034 2942.3783257 -1197.77000572 2938.3594529 -1201.85821152 2934.25946426 C-1202.60715179 2933.51148071 -1203.35609207 2932.76349716 -1204.12772751 2931.99284744 C-1205.69951752 2930.42173337 -1207.27006375 2928.84937409 -1208.83941269 2927.27582169 C-1211.2228183 2924.88705956 -1213.61151595 2922.50368356 -1216.00078964 2920.12079239 C-1217.53691764 2918.58400351 -1219.07273535 2917.04690441 -1220.60821152 2915.50946426 C-1221.31256836 2914.80713165 -1222.0169252 2914.10479904 -1222.74262619 2913.38118362 C-1226.69589273 2909.40943878 -1230.47468931 2905.34224294 -1234.11979294 2901.08525467 C-1236.50405903 2898.36163897 -1239.07413253 2895.84140795 -1241.66680527 2893.31805801 C-1245.59457236 2889.49531143 -1249.2643423 2885.53400971 -1252.85039902 2881.38837051 C-1255.86783702 2877.9491401 -1259.02073072 2874.63927486 -1262.16680527 2871.31805801 C-1266.57543898 2866.66399521 -1270.89691367 2861.95888187 -1275.09942245 2857.11737442 C-1277.0464948 2854.88218389 -1279.04174996 2852.69335798 -1281.04180527 2850.50555801 C-1284.17103353 2847.04275719 -1287.17180876 2843.51126798 -1290.10430527 2839.88055801 C-1293.18017115 2836.07718299 -1296.35433693 2832.4172315 -1299.66680527 2828.81805801 C-1304.08460386 2824.00726507 -1308.23923365 2819.03797991 -1312.33868027 2813.95526505 C-1314.4188142 2811.39104113 -1316.52312083 2808.84688178 -1318.62530136 2806.30072403 C-1321.04543658 2803.36905574 -1323.46036427 2800.43312109 -1325.87481308 2797.49676895 C-1327.0400289 2796.08009511 -1328.20600346 2794.66404487 -1329.37285995 2793.24872208 C-1335.79731153 2785.44949074 -1342.06025712 2777.56686116 -1348.08184433 2769.45184708 C-1351.82736994 2764.40969928 -1355.66714018 2759.44894823 -1359.54180527 2754.50555801 C-1366.77792207 2745.25043096 -1373.75389433 2735.81612406 -1380.66680527 2726.31805801 C-1381.48447372 2725.19681534 -1381.48447372 2725.19681534 -1382.31866074 2724.0529213 C-1386.12692496 2718.82613871 -1389.90522884 2713.57852215 -1393.66680527 2708.31805801 C-1394.16486679 2707.62389786 -1394.66292831 2706.9297377 -1395.17608261 2706.21454239 C-1418.79264648 2673.21121947 -1440.97822869 2639.01096098 -1461.90166855 2604.24676895 C-1463.72151055 2601.22729112 -1465.55107805 2598.21385403 -1467.38164902 2595.20087051 C-1475.4897568 2581.8194524 -1483.28608199 2568.2924975 -1490.85137558 2554.59735489 C-1492.72537768 2551.21225588 -1494.61313234 2547.83509099 -1496.50274277 2544.45868301 C-1506.24072739 2527.02227769 -1515.50347427 2509.36470353 -1524.53344345 2491.55224991 C-1525.69520814 2489.26206753 -1526.85977669 2486.97332651 -1528.02471542 2484.68475723 C-1538.47835358 2464.1291348 -1548.51443682 2443.44064696 -1557.86944199 2422.36151505 C-1559.36350623 2418.99517457 -1560.87180834 2415.63544182 -1562.38419724 2412.27730179 C-1598.43510309 2332.16169665 -1627.53750242 2249.03969854 -1650.66680527 2164.31805801 C-1650.90701401 2163.44207962 -1651.14722275 2162.56610123 -1651.39471054 2161.66357803 C-1679.60539447 2058.76490301 -1697.07595455 1953.04260628 -1705.63946152 1846.73602676 C-1705.73281029 1845.58255501 -1705.73281029 1845.58255501 -1705.82804489 1844.40578079 C-1706.55471417 1835.0513017 -1707.10378143 1825.68352576 -1707.66680527 1816.31805801 C-1707.73833974 1815.131363 -1707.73833974 1815.131363 -1707.81131935 1813.92069435 C-1709.68352602 1782.50013401 -1710.03121076 1751.12188756 -1709.98486328 1719.65125275 C-1709.97922171 1715.76043278 -1709.97640204 1711.86961717 -1709.97378159 1707.9787941 C-1709.93865515 1672.10605302 -1709.72897733 1636.34647588 -1706.92004013 1600.56598282 C-1706.6527642 1597.13797087 -1706.39891761 1593.70912952 -1706.14678574 1590.27997208 C-1702.29016714 1538.37526765 -1696.16602442 1486.66822249 -1687.66680527 1435.31805801 C-1687.51725388 1434.41321671 -1687.36770248 1433.5083754 -1687.21361923 1432.57611465 C-1673.95604535 1352.70025349 -1655.1362689 1273.82934125 -1630.43316269 1196.71680069 C-1629.67228453 1194.33520842 -1628.91748249 1191.95178024 -1628.16485214 1189.56756973 C-1607.76460705 1124.96553636 -1582.87701192 1061.89539616 -1554.66680527 1000.31805801 C-1554.34963547 999.62419998 -1554.03246567 998.93034195 -1553.70568466 998.21545792 C-1544.82968206 978.80899683 -1535.4381257 959.66520755 -1525.91680527 940.56805801 C-1525.39691025 939.52291031 -1524.87701523 938.4777626 -1524.34136581 937.40094376 C-1517.50269356 923.67006228 -1510.39981201 910.11792454 -1502.97796249 896.69336319 C-1501.47390632 893.9686004 -1499.98402581 891.23635832 -1498.49711227 888.50221634 C-1489.84740807 872.60413782 -1480.83936877 856.96902105 -1471.53350449 841.4459877 C-1469.7617636 838.4771747 -1468.00871328 835.49839978 -1466.26446152 832.51337051 C-1459.24767277 820.51002605 -1451.93450124 808.73347833 -1444.41094589 797.04169083 C-1442.70609196 794.37940772 -1441.01927895 791.70664359 -1439.33868027 789.02899551 C-1421.55141648 760.73473962 -1402.36166616 733.3114305 -1382.66680527 706.31805801 C-1382.11556992 705.56202286 -1381.56433456 704.8059877 -1380.99639511 704.02704239 C-1363.63571416 680.25187275 -1345.75770533 656.83173798 -1327.09502792 634.06219864 C-1325.80675879 632.48896878 -1324.52357802 630.91157553 -1323.24102402 629.33368301 C-1318.80909536 623.88626804 -1314.30425243 618.50652442 -1309.75445175 613.15765762 C-1306.82371986 609.70627114 -1303.94951296 606.21569611 -1301.10430527 602.69305801 C-1297.2841721 597.9944985 -1293.24969271 593.53592035 -1289.14727402 589.08368301 C-1286.66216295 586.31288201 -1284.31236193 583.4675444 -1281.97930527 580.56805801 C-1278.94106102 576.80362534 -1275.80354228 573.33598379 -1272.33086777 569.97430801 C-1269.97163138 567.62614785 -1267.83032711 565.10917974 -1265.65508652 562.59149551 C-1261.41997955 557.74899599 -1257.03432252 553.04093052 -1252.66680527 548.31805801 C-1252.09945663 547.704142 -1251.532108 547.09022598 -1250.94756699 546.45770645 C-1238.40345548 532.90114271 -1238.40345548 532.90114271 -1231.82696152 526.54071426 C-1229.98001914 524.64033414 -1228.2605547 522.70029229 -1226.53545761 520.69110489 C-1222.72707296 516.32768294 -1218.70820015 512.21485756 -1214.60821152 508.12665176 C-1213.86022797 507.37771149 -1213.11224442 506.62877121 -1212.3415947 505.85713577 C-1210.77048063 504.28534577 -1209.19812134 502.71479953 -1207.62456894 501.14545059 C-1205.23580681 498.76204498 -1202.85243081 496.37334733 -1200.46953964 493.98407364 C-1198.93275076 492.44794565 -1197.39565167 490.91212793 -1195.85821152 489.37665176 C-1195.15587891 488.67229492 -1194.4535463 487.96793808 -1193.72993088 487.24223709 C-1189.75818603 483.28897056 -1185.69099019 479.51017397 -1181.43400192 475.86507034 C-1178.71038623 473.48080425 -1176.1901552 470.91073075 -1173.66680527 468.31805801 C-1169.84405869 464.39029092 -1165.88275696 460.72052098 -1161.73711777 457.13446426 C-1158.29788736 454.11702626 -1154.98802211 450.96413256 -1151.66680527 447.81805801 C-1147.01274247 443.40942431 -1142.30762912 439.08794961 -1137.46612167 434.88544083 C-1135.23093114 432.93836848 -1133.04210523 430.94311333 -1130.85430527 428.94305801 C-1127.39150444 425.81382975 -1123.86001523 422.81305452 -1120.22930527 419.88055801 C-1116.42593024 416.80469213 -1112.76597875 413.63052635 -1109.16680527 410.31805801 C-1104.35601232 405.90025942 -1099.38672716 401.74562963 -1094.3040123 397.64618301 C-1091.73978838 395.56604909 -1089.19562903 393.46174245 -1086.64947128 391.35956192 C-1083.71780299 388.9394267 -1080.78186834 386.52449901 -1077.8455162 384.1100502 C-1076.42884236 382.94483438 -1075.01279212 381.77885982 -1073.59746933 380.61200333 C-1065.79823799 374.18755175 -1057.91560842 367.92460616 -1049.80059433 361.90301895 C-1044.75844654 358.15749335 -1039.79769548 354.3177231 -1034.85430527 350.44305801 C-1025.59917821 343.20694121 -1016.16487131 336.23096895 -1006.66680527 329.31805801 C-1005.91931015 328.77294571 -1005.17181503 328.2278334 -1004.40166855 327.66620255 C-999.17488596 323.85793832 -993.9272694 320.07963444 -988.66680527 316.31805801 C-987.97264511 315.81999649 -987.27848495 315.32193497 -986.56328964 314.80878067 C-953.55996672 291.1922168 -919.35970824 269.00663459 -884.5955162 248.08319473 C-881.57603838 246.26335273 -878.56260128 244.43378523 -875.54961777 242.60321426 C-862.16819965 234.49510648 -848.64124476 226.69878129 -834.94610214 219.1334877 C-831.56100313 217.2594856 -828.18383824 215.37173094 -824.80743027 213.48212051 C-807.37102495 203.74413589 -789.71345078 194.48138901 -771.90099716 185.45141983 C-769.61081479 184.28965514 -767.32207377 183.12508659 -765.03350449 181.96014786 C-744.47788205 171.5065097 -723.78939421 161.47042646 -702.7102623 152.1154213 C-699.34392182 150.62135705 -695.98418908 149.11305494 -692.62604904 147.60066605 C-612.5104439 111.5497602 -529.38844579 82.44736086 -444.66680527 59.31805801 C-443.79082687 59.07784927 -442.91484848 58.83764053 -442.01232529 58.59015274 C-339.11365027 30.37946882 -233.39135354 12.90890873 -127.08477402 4.34540176 C-125.93130226 4.25205299 -125.93130226 4.25205299 -124.75452805 4.15681839 C-115.40004896 3.43014911 -106.03227302 2.88108185 -96.66680527 2.31805801 C-95.48011025 2.24652354 -95.48011025 2.24652354 -94.2694416 2.17354393 C-62.84888126 0.30133726 -31.47063481 -0.04634748 0 0 Z " fill="#FEFEFE" transform="translate(1709.666805267334,-0.3180580139160156)"/>
<path d="M0 0 C672.6448999 0 672.6448999 0 756 27 C757.17643066 27.37672852 758.35286133 27.75345703 759.56494141 28.14160156 C775.14908331 33.14711078 790.52791233 38.45956944 805.56835938 44.95166016 C807.89859768 45.95628298 810.2372128 46.93853514 812.578125 47.91796875 C862.51266417 69.11793893 913.82867254 104.51496543 947.859375 147.359375 C949.96606713 149.95814121 952.16945184 152.41662612 954.4375 154.875 C959.66378546 160.64193568 964.39742551 166.73259782 969 173 C969.51691406 173.70350586 970.03382813 174.40701172 970.56640625 175.13183594 C1004.46144673 221.62733769 1029.14988592 275.46057335 1044 331 C1044.42957609 332.54039566 1044.85927354 334.08075747 1045.2890625 335.62109375 C1048.72972181 348.17186737 1051.55743611 360.83457615 1054.25 373.5625 C1054.42253296 374.37211182 1054.59506592 375.18172363 1054.77282715 376.01586914 C1056.88829778 385.97761985 1058.65894157 395.89982373 1060 406 C1060.317378 408.13474874 1060.63897633 410.26887441 1060.96484375 412.40234375 C1068.15838981 460.33130806 1070.47305947 508.54726191 1070.39160402 556.96059827 C1070.38476239 563.06126599 1070.39562482 569.16191041 1070.40399987 575.26257277 C1070.41625567 585.90571542 1070.41773171 596.54880821 1070.41144943 607.19195175 C1070.40477236 618.58678481 1070.40475784 629.9815902 1070.41249657 641.37642288 C1070.41298457 642.10187781 1070.41347256 642.82733274 1070.41397535 643.57477115 C1070.41598402 646.53048695 1070.41803718 649.48620271 1070.42014709 652.44191844 C1070.44143253 682.29225649 1070.44362224 712.14257401 1070.43809005 741.99291774 C1070.43733416 746.1034614 1070.43660656 750.21400506 1070.43590808 754.32454872 C1070.43569944 755.54959028 1070.43569944 755.54959028 1070.43548659 756.79938016 C1070.43252245 774.97426999 1070.43555874 793.1491574 1070.43980437 811.32404679 C1070.44038652 813.81842777 1070.44095538 816.31280876 1070.44152 818.80718974 C1070.44303523 825.49543384 1070.44456215 832.18367792 1070.44611301 838.87192201 C1070.45685424 885.50360698 1070.4615877 932.1352897 1070.45364285 978.7669754 C1070.45342039 980.08275999 1070.45342039 980.08275999 1070.45319343 981.42512608 C1070.45153474 991.20455936 1070.44978515 1000.98399263 1070.44800042 1010.76342589 C1070.4478394 1011.64620056 1070.44767837 1012.52897524 1070.44751247 1013.43850067 C1070.44620581 1020.59667302 1070.44620581 1020.59667302 1070.44555128 1024.14838236 C1070.43516354 1080.59470159 1070.44292549 1137.04098963 1070.46655273 1193.48730469 C1070.47249721 1207.71202845 1070.47838923 1221.93675222 1070.48396206 1236.16147614 C1070.48430583 1237.03760942 1070.4846496 1237.91374271 1070.48500379 1238.81642549 C1070.4955481 1265.86324085 1070.50112575 1292.91005361 1070.5015192 1319.95687103 C1070.50153199 1320.80726995 1070.50154477 1321.65766887 1070.50155794 1322.53383745 C1070.50178634 1341.21097045 1070.50077912 1359.88810323 1070.49864888 1378.56523611 C1070.49789427 1385.24969263 1070.49721603 1391.93414915 1070.49656873 1398.61860568 C1070.49640604 1400.28119959 1070.49623837 1401.94379349 1070.49606572 1403.6063874 C1070.4933568 1429.97775512 1070.50184591 1456.34910377 1070.51591982 1482.72046739 C1070.53040034 1510.05418769 1070.52978536 1537.38787204 1070.5125451 1564.72159117 C1070.51074133 1567.67185029 1070.50900109 1570.62210944 1070.50731087 1573.57236862 C1070.50689037 1574.2963009 1070.50646987 1575.02023317 1070.50603662 1575.76610279 C1070.49979963 1587.1144907 1070.50674829 1598.46282825 1070.51952007 1609.81120904 C1070.53186449 1621.03739251 1070.52904368 1632.26349941 1070.51229975 1643.48968366 C1070.50378109 1649.4661076 1070.50095717 1655.44235206 1070.51656907 1661.41876584 C1070.71043576 1741.12991844 1064.37576092 1824.91850121 1039 1901 C1038.56204345 1902.32786538 1038.12440041 1903.65583418 1037.68701172 1904.98388672 C1019.60164522 1959.75412914 995.11191735 2011.51521425 958.34912109 2056.34667969 C957.13241973 2057.83772233 955.93417813 2059.34378233 954.73828125 2060.8515625 C942.08599124 2076.70785201 927.56219576 2091.96847906 912 2105 C911.07316406 2105.804375 910.14632812 2106.60875 909.19140625 2107.4375 C869.14372718 2142.07943222 821.90529124 2166.75656125 772.04931641 2183.93798828 C769.44174237 2184.84615058 766.84904526 2185.78216552 764.26171875 2186.74609375 C552.19345428 2265.48308115 41.53685973 2217 0 2217 C0 1485.39 0 753.78 0 0 Z " fill="#000000" transform="translate(451,590)"/>
<path d="M0 0 C355.08 0 710.16 0 1076 0 C1076 104.61 1076 209.22 1076 317 C955.88 317 835.76 317 712 317 C712 944.33 712 1571.66 712 2218 C597.16 2218 482.32 2218 364 2218 C364 1590.67 364 963.34 364 317 C243.88 317 123.76 317 0 317 C0 212.39 0 107.78 0 0 Z " fill="#000000" transform="translate(1642,589)"/>
<path d="M0 0 C274.56865913 0 274.56865913 0 320 43 C320.94617187 43.87011719 321.89234375 44.74023438 322.8671875 45.63671875 C356.17755418 76.96458486 367.34863462 124.16709592 372 168 C372.09688915 168.91034347 372.19377831 169.82068695 372.29360349 170.75861659 C374.61407363 193.76064752 374.29016764 216.83265007 374.26933783 239.92270563 C374.26603995 246.04349997 374.27437944 252.1642811 374.28115618 258.28507107 C374.29141627 268.99101259 374.29437688 279.6969335 374.29224396 290.40287781 C374.2899867 301.87781958 374.29209209 313.35274841 374.29938889 324.82768822 C374.30007784 325.91918655 374.30007784 325.91918655 374.30078072 327.03273536 C374.30266423 329.99694753 374.30457563 332.96115967 374.3065231 335.92537179 C374.32675669 366.76809772 374.33293302 397.61081636 374.33410732 428.45354817 C374.33423683 431.76812862 374.33437271 435.08270907 374.33451414 438.39728951 C374.33454815 439.21991264 374.33458216 440.04253577 374.3346172 440.89008688 C374.3354358 459.15851248 374.33982104 477.42693669 374.34482583 495.69536155 C374.34688268 503.22903999 374.34886281 510.76271846 374.35085833 518.29639691 C374.35107951 519.12892353 374.35130069 519.96145015 374.35152857 520.81920485 C374.36416809 568.49550158 374.37242773 616.17179741 374.37151146 663.84809589 C374.3714799 665.63044525 374.37144843 667.4127946 374.37141704 669.19514395 C374.37127029 677.24143098 374.37109395 685.287718 374.37090927 693.33400503 C374.37082703 696.92169195 374.37074673 700.50937887 374.37066665 704.09706579 C374.37062586 705.8927627 374.37058382 707.6884596 374.37054053 709.48415651 C374.36918048 766.24799325 374.38381068 823.01180502 374.41162109 879.77563477 C374.41862385 894.07659809 374.42556308 908.37756144 374.43214989 922.67852497 C374.43255564 923.55924175 374.43296138 924.43995853 374.43337943 925.3473637 C374.44582135 952.51867319 374.45334284 979.68998062 374.45586586 1006.86129284 C374.45594576 1007.7151348 374.45602566 1008.56897676 374.45610799 1009.44869271 C374.45781503 1028.19815722 374.45833676 1046.94762161 374.45776723 1065.69708618 C374.45757429 1072.40698281 374.45747018 1079.11687943 374.45740977 1085.82677606 C374.45739395 1087.49584586 374.45737354 1089.16491566 374.45734853 1090.83398545 C374.45699683 1117.35723942 374.46835339 1143.88047192 374.48565616 1170.40371974 C374.50300795 1197.13807452 374.50729419 1223.87239968 374.49413352 1250.60675774 C374.49230933 1254.31347181 374.49062267 1258.02018593 374.48901749 1261.7269001 C374.48869731 1262.45340553 374.48837714 1263.17991096 374.48804726 1263.92843171 C374.48336967 1275.36006446 374.49199004 1286.79164544 374.50635986 1298.22326846 C374.52025783 1309.50653031 374.51919109 1320.78969751 374.50397559 1332.07296497 C374.496264 1338.09066993 374.49451021 1344.10819416 374.51089029 1350.12588588 C374.61457606 1390.87499968 373.62985918 1432.85558482 361 1472 C360.59056152 1473.27327148 360.59056152 1473.27327148 360.17285156 1474.57226562 C352.34550774 1498.42620403 341.28703422 1518.71167249 324 1537 C323.25363281 1537.81082031 322.50726562 1538.62164063 321.73828125 1539.45703125 C294.77997464 1567.75211339 258.62836972 1576.72860505 221 1583 C148.07 1583 75.14 1583 0 1583 C0 1060.61 0 538.22 0 0 Z " fill="#FEFEFE" transform="translate(799,906)"/>
<path d="M0 0 C12.55303981 9.6115066 18.97634925 23.93279807 21.53611755 39.19691467 C22.02418319 43.198263 22.13350781 47.1160613 22.11352539 51.13842773 C22.11364593 51.93224633 22.11376646 52.72606493 22.11389065 53.54393864 C22.11314964 56.09051975 22.10555875 58.63702588 22.09765625 61.18359375 C22.09618431 62.76501429 22.09516515 64.34643532 22.09460449 65.92785645 C22.0893808 71.76441177 22.07541954 77.60095664 22.0625 83.4375 C22.041875 96.493125 22.02125 109.54875 22 123 C-12.32 123 -46.64 123 -82 123 C-82.66 121.02 -83.32 119.04 -84 117 C-85.485 117.495 -85.485 117.495 -87 118 C-87.33 118.99 -87.66 119.98 -88 121 C-89.7687398 121.13513292 -91.54043055 121.23205586 -93.3125 121.3125 C-94.79169922 121.39951172 -94.79169922 121.39951172 -96.30078125 121.48828125 C-99 121 -99 121 -100.65625 118.828125 C-101.0996875 117.89484375 -101.543125 116.9615625 -102 116 C-102.52980469 115.09121094 -103.05960938 114.18242187 -103.60546875 113.24609375 C-104.38857422 111.85583984 -104.38857422 111.85583984 -105.1875 110.4375 C-105.71730469 109.50808594 -106.24710938 108.57867188 -106.79296875 107.62109375 C-108 105 -108 105 -108 101 C-109.65 100.67 -111.3 100.34 -113 100 C-113 95.71 -113 91.42 -113 87 C-111.68 87 -110.36 87 -109 87 C-109.061875 86.030625 -109.12375 85.06125 -109.1875 84.0625 C-109.15769211 76.65523934 -105.85903551 70.59637946 -102.20703125 64.3515625 C-100.19331655 60.42840311 -99.09306371 56.25672778 -98 52 C-96.68 52 -95.36 52 -94 52 C-94 51.34 -94 50.68 -94 50 C-91.36 50 -88.72 50 -86 50 C-85.67 50.99 -85.34 51.98 -85 53 C-84.34 53 -83.68 53 -83 53 C-82.90203125 52.00742188 -82.8040625 51.01484375 -82.703125 49.9921875 C-80.7277588 31.4581993 -76.113891 15.02650003 -62 2 C-55.49072152 -3.05325566 -49.00322543 -6.14542013 -41 -8 C-40.38382813 -8.18433594 -39.76765625 -8.36867188 -39.1328125 -8.55859375 C-24.91859656 -11.50036372 -12.01121636 -7.25967949 0 0 Z " fill="#010101" transform="translate(1747,2548)"/>
<path d="M0 0 C2.24758676 27.27426579 2.24758676 27.27426579 -2.40234375 32.80078125 C-5.02357301 35.03038514 -7.96046619 36.56140117 -11.06542969 38.01660156 C-14.56339253 39.79471796 -17.60886072 42.22809025 -20.75 44.5625 C-21.93023045 45.40004758 -23.11235564 46.23493541 -24.296875 47.06640625 C-26.80002664 48.74545161 -26.80002664 48.74545161 -28 50 C-28.16023562 52.88252645 -28.25954029 55.74378527 -28.31640625 58.62890625 C-28.33718735 59.49313705 -28.35796844 60.35736786 -28.37937927 61.24778748 C-28.44497114 64.01927445 -28.50380418 66.79085921 -28.5625 69.5625 C-28.60567608 71.43685923 -28.64929006 73.31120843 -28.69335938 75.18554688 C-28.80148968 79.79026566 -28.90049083 84.39505441 -29 89 C-19.43 89 -9.86 89 0 89 C0 97.25 0 105.5 0 114 C-29.37 114 -58.74 114 -89 114 C-89.061875 100.696875 -89.12375 87.39375 -89.1875 73.6875 C-89.21481201 69.50666748 -89.24212402 65.32583496 -89.27026367 61.01831055 C-89.28381348 55.86291504 -89.28381348 55.86291504 -89.28633118 53.43977356 C-89.29089976 51.76856582 -89.30137066 50.09736718 -89.31672668 48.42622375 C-89.43165751 35.24525394 -89.53268961 23.18010881 -80 13 C-74.21764994 7.15118615 -68.64619432 3.89834777 -60.25 3.5625 C-51.58502685 3.81192977 -43.81799684 6.34279023 -37.4375 12.33984375 C-35.12077868 15.01540505 -33.58080393 17.83839215 -32 21 C-28.58315544 19.74478703 -25.78918169 18.3210999 -22.85546875 16.171875 C-22.09556641 15.61886719 -21.33566406 15.06585937 -20.55273438 14.49609375 C-19.77220703 13.91988281 -18.99167969 13.34367187 -18.1875 12.75 C-17.41857422 12.18925781 -16.64964844 11.62851563 -15.85742188 11.05078125 C-11.37492135 7.7749623 -6.93341951 4.44959972 -2.5246582 1.07519531 C-1 0 -1 0 0 0 Z " fill="#010101" transform="translate(1769,1604)"/>
<path d="M0 0 C4.0750641 1.8111396 6.81075051 3.84347856 9.6875 7.3125 C10.368125 8.075625 11.04875 8.83875 11.75 9.625 C23.83690629 26.39070872 23.77824886 50.23581238 20.9921875 69.859375 C18.33188497 85.52954879 12.61618714 99.61322991 4.6875 113.3125 C-0.64583333 109.3125 -5.97916667 105.3125 -11.3125 101.3125 C-9.98568497 97.90416782 -8.51616475 94.61060216 -6.9375 91.3125 C-1.0843359 78.51519742 0.89086524 66.57242208 1 52.625 C1.02900391 51.40876953 1.05800781 50.19253906 1.08789062 48.93945312 C1.14373104 40.93709147 0.00125783 34.61138168 -3.3125 27.3125 C-5.2925 26.9825 -7.2725 26.6525 -9.3125 26.3125 C-14.82784226 35.33760552 -14.61066767 46.84585465 -15.25 57.125 C-15.92729143 66.73586076 -16.82316611 75.97457617 -19.3125 85.3125 C-19.57675781 86.31152344 -19.84101562 87.31054688 -20.11328125 88.33984375 C-22.65962738 96.51731657 -27.23860903 102.38992605 -34.1875 107.375 C-40.67455199 109.3211156 -47.21862496 109.07406164 -53.44140625 106.33203125 C-62.9105655 101.17242673 -66.71904556 92.12838638 -70.3125 82.3125 C-76.53015368 57.51864645 -72.66687695 27.42683474 -60.3125 5.3125 C-55.32655953 5.3125 -53.24622258 7.31694537 -49.5625 10.3125 C-48.96050781 10.78945313 -48.35851563 11.26640625 -47.73828125 11.7578125 C-46.25615221 12.93410539 -44.78339057 14.12218393 -43.3125 15.3125 C-43.48378418 15.83569824 -43.65506836 16.35889648 -43.83154297 16.89794922 C-44.62270921 19.32593745 -45.405121 21.75666665 -46.1875 24.1875 C-46.45691406 25.00992188 -46.72632813 25.83234375 -47.00390625 26.6796875 C-50.14385253 36.48244661 -51.64482911 45.50764004 -51.5625 55.8125 C-51.57023437 56.78058594 -51.57796875 57.74867187 -51.5859375 58.74609375 C-51.56403481 66.90484489 -51.29938394 75.51220372 -46.3125 82.3125 C-43.8375 81.8175 -43.8375 81.8175 -41.3125 81.3125 C-38.29581486 73.68061449 -37.70279007 66.65545853 -37.3125 58.5 C-34.6761308 13.91781635 -34.6761308 13.91781635 -21.75 1.9375 C-14.63214416 -2.80773723 -8.03638401 -2.96709544 0 0 Z " fill="#020202" transform="translate(1750.3125,996.6875)"/>
<path d="M0 0 C6.6 0 13.2 0 20 0 C20 32.67 20 65.34 20 99 C-9.37 99 -38.74 99 -69 99 C-69 67.32 -69 35.64 -69 3 C-62.4 3 -55.8 3 -49 3 C-49 26.43 -49 49.86 -49 74 C-44.05 74 -39.1 74 -34 74 C-34 58.16 -34 42.32 -34 26 C-27.4 26 -20.8 26 -14 26 C-14 41.84 -14 57.68 -14 74 C-9.38 74 -4.76 74 0 74 C0 49.58 0 25.16 0 0 Z " fill="#000000" transform="translate(1749,2415)"/>
<path d="M0 0 C6.6 0 13.2 0 20 0 C20 32.67 20 65.34 20 99 C-9.37 99 -38.74 99 -69 99 C-69 67.32 -69 35.64 -69 3 C-62.4 3 -55.8 3 -49 3 C-49 26.43 -49 49.86 -49 74 C-44.05 74 -39.1 74 -34 74 C-34 58.16 -34 42.32 -34 26 C-27.4 26 -20.8 26 -14 26 C-14 41.84 -14 57.68 -14 74 C-9.38 74 -4.76 74 0 74 C0 49.58 0 25.16 0 0 Z " fill="#000000" transform="translate(1749,1912)"/>
<path d="M0 0 C6.6 0 13.2 0 20 0 C20 32.67 20 65.34 20 99 C-9.37 99 -38.74 99 -69 99 C-69 67.32 -69 35.64 -69 3 C-62.4 3 -55.8 3 -49 3 C-49 26.43 -49 49.86 -49 74 C-44.05 74 -39.1 74 -34 74 C-34 58.16 -34 42.32 -34 26 C-27.4 26 -20.8 26 -14 26 C-14 41.84 -14 57.68 -14 74 C-9.38 74 -4.76 74 0 74 C0 49.58 0 25.16 0 0 Z " fill="#000000" transform="translate(1749,1233)"/>
<path d="M0 0 C0.49892601 4.12054187 0.79666952 8.23340583 1.0625 12.375 C1.20494141 13.53128906 1.34738281 14.68757813 1.49414062 15.87890625 C1.68470151 19.84705654 1.61554452 22.34466081 0 26 C-2.63217783 27.75966738 -5.53298797 28.88199241 -8.43359375 30.1328125 C-12.8501809 32.19100205 -16.21035613 33.97945223 -18.04330444 38.6696167 C-19.45893558 45.63745189 -19.41945154 52.62118597 -19.21630859 59.70361328 C-19.12499235 63.50031823 -19.21534933 67.26294264 -19.32421875 71.05859375 C-19.83426604 82.74711735 -19.83426604 82.74711735 -15.23867798 92.94354248 C-12.32518061 95.02069305 -9.33238114 96.47960594 -6.05412292 97.89328003 C-0.25399782 100.42530325 -0.25399782 100.42530325 1.39453125 104.15527344 C1.66888649 107.77938518 1.50661038 111.01986871 1.0625 114.625 C0.98580078 115.81996094 0.90910156 117.01492188 0.83007812 118.24609375 C0.6306128 121.17940741 0.3533306 124.08190489 0 127 C-9.28049389 122.4904714 -18.27759424 117.5684404 -27.27539062 112.52490234 C-32.44793705 109.62994491 -37.63082847 106.75358176 -42.8125 103.875 C-43.9372876 103.24964355 -45.0620752 102.62428711 -46.22094727 101.97998047 C-52.4988739 98.49170609 -58.782623 95.01434386 -65.07421875 91.55078125 C-66.07180962 91.00139893 -66.07180962 91.00139893 -67.08955383 90.44091797 C-70.32409878 88.65982175 -73.55945578 86.88022832 -76.79614258 85.10302734 C-77.9682877 84.45805504 -79.14040814 83.81303785 -80.3125 83.16796875 C-81.33988281 82.60360107 -82.36726563 82.0392334 -83.42578125 81.45776367 C-85.32841132 80.38031639 -87.18070081 79.21286613 -89 78 C-89.34057617 75.11083984 -89.34057617 75.11083984 -89.29296875 71.4609375 C-89.28330078 70.15898438 -89.27363281 68.85703125 -89.26367188 67.515625 C-89.23860388 66.13541077 -89.21320902 64.75520244 -89.1875 63.375 C-89.17245517 61.98699337 -89.15876641 60.59897133 -89.14648438 59.2109375 C-89.1110257 55.80690491 -89.06160298 52.40364378 -89 49 C-76.28665766 41.74830092 -63.51904614 34.61500416 -50.63696289 27.66723633 C-39.62770755 21.72799738 -28.69199822 15.66587101 -17.8125 9.4921875 C-16.75554932 8.89277344 -15.69859863 8.29335937 -14.60961914 7.67578125 C-12.52163387 6.49045228 -10.43484819 5.30300731 -8.34936523 4.11328125 C-7.40778564 3.57832031 -6.46620605 3.04335937 -5.49609375 2.4921875 C-4.65232178 2.01120605 -3.8085498 1.53022461 -2.93920898 1.03466797 C-1 0 -1 0 0 0 Z " fill="#010101" transform="translate(1769,1471)"/>
<path d="M0 0 C0.33 0 0.66 0 1 0 C3.18782116 33.4876882 3.18782116 33.4876882 -2.93725586 40.63476562 C-5.50002474 42.98464414 -8.15715798 44.99139248 -11 47 C-13.02565799 49.0927111 -13.02565799 49.0927111 -14.6875 51.1875 C-16.55516857 53.36490568 -18.45214635 55.47912928 -20.421875 57.56640625 C-21.25203125 58.45199219 -22.0821875 59.33757813 -22.9375 60.25 C-23.70964844 61.05953125 -24.48179688 61.8690625 -25.27734375 62.703125 C-27.4 65.05481771 -27.4 65.05481771 -27 69 C-25.24779395 71.16135061 -23.50930845 73.09233102 -21.5625 75.0625 C-20.45323079 76.22157246 -19.34648725 77.38306694 -18.2421875 78.546875 C-17.69143555 79.12630859 -17.14068359 79.70574219 -16.57324219 80.30273438 C-13.62253234 83.4860576 -10.93322113 86.87625531 -8.23046875 90.26953125 C-6.2033958 92.92645575 -6.2033958 92.92645575 -4.19750977 94.50537109 C-0.08803634 98.24144488 1.39116601 101.19726442 1.66178894 106.82307434 C1.69916937 110.55502255 1.58450355 114.27141928 1.4375 118 C1.40233733 119.55331501 1.37040703 121.10670674 1.34179688 122.66015625 C1.26516327 126.4420184 1.14466941 130.22015399 1 134 C-3.0635441 130.62067548 -6.88441699 127.23541662 -10.375 123.25 C-11.13296875 122.39148437 -11.8909375 121.53296875 -12.671875 120.6484375 C-13.44015625 119.77445313 -14.2084375 118.90046875 -15 118 C-16.53965146 116.28985022 -18.08128752 114.58148489 -19.625 112.875 C-22.84019487 109.30379739 -26.01806821 105.70352907 -29.171875 102.078125 C-32.07071731 98.78285981 -35.02907691 95.54150298 -37.984375 92.296875 C-39.77019535 90.26187041 -41.41203295 88.19099251 -43 86 C-47.04430846 87.57226043 -49.50569687 90.45175313 -52.3125 93.625 C-52.80105469 94.16769531 -53.28960938 94.71039062 -53.79296875 95.26953125 C-56.9391296 98.77358871 -60.04081811 102.31632859 -63.125 105.875 C-66.01403915 109.14924437 -68.98118534 112.35165605 -71.93994141 115.56274414 C-75.14683651 119.04972953 -78.28953483 122.58225672 -81.3671875 126.18359375 C-83.49042678 128.54557046 -85.74921073 130.75998115 -88 133 C-90.1878287 99.51219629 -90.1878287 99.51219629 -84.0625 92.36499023 C-81.49990714 90.01530511 -78.84214494 88.0091641 -76 86 C-73.94044152 83.87356553 -73.94044152 83.87356553 -72.25 81.75 C-70.47098635 79.66714491 -68.6717284 77.66082428 -66.765625 75.69140625 C-66.01796875 74.90636719 -65.2703125 74.12132813 -64.5 73.3125 C-63.8090625 72.60738281 -63.118125 71.90226562 -62.40625 71.17578125 C-60.76162072 69.07728158 -60.76162072 69.07728158 -61.0546875 66.46875 C-62.15274035 63.60110785 -63.36953267 62.25573742 -65.625 60.1875 C-68.97599195 57.00286936 -72.05232144 53.72756323 -75.0625 50.22265625 C-78.28826828 46.52212772 -81.63346271 42.92926552 -84.9609375 39.3203125 C-88.35246798 35.46098471 -88.13341862 32.51598149 -88.09765625 27.5859375 C-88.0962413 26.85629791 -88.09482635 26.12665833 -88.09336853 25.37490845 C-88.08776531 23.04156415 -88.07521235 20.70831536 -88.0625 18.375 C-88.05748541 16.79427222 -88.05292243 15.21354293 -88.04882812 13.6328125 C-88.03779484 9.75517146 -88.02052811 5.87760193 -88 2 C-83.9364559 5.37932452 -80.11558301 8.76458338 -76.625 12.75 C-75.86703125 13.60851563 -75.1090625 14.46703125 -74.328125 15.3515625 C-73.17570312 16.66253906 -73.17570312 16.66253906 -72 18 C-70.46034854 19.71014978 -68.91871248 21.41851511 -67.375 23.125 C-64.18330099 26.66949475 -61.03087017 30.24402592 -57.90625 33.84765625 C-56.40648849 35.54103451 -54.87992073 37.21067392 -53.34375 38.87109375 C-52.88411865 39.36810791 -52.4244873 39.86512207 -51.95092773 40.37719727 C-50.61821929 41.81489135 -49.27993061 43.24740659 -47.94140625 44.6796875 C-46 47 -46 47 -46 49 C-41.75337151 46.75403945 -38.76922263 43.8748403 -35.625 40.3125 C-35.14168213 39.7750415 -34.65836426 39.23758301 -34.16040039 38.68383789 C-31.01003491 35.17132513 -27.89930797 31.62366219 -24.80859375 28.05859375 C-22.5698875 25.5104335 -20.28589788 23.00589407 -18 20.5 C-13.34075091 15.38894494 -8.73293206 10.2399466 -4.2734375 4.953125 C-2.86697926 3.28670528 -1.43594468 1.64107963 0 0 Z " fill="#020202" transform="translate(1768,2026)"/>
<path d="M0 0 C7.7806882 -0.06808015 15.56121029 -0.12299024 23.3421154 -0.15543652 C26.95605511 -0.17101793 30.56977849 -0.19211627 34.18359375 -0.22631836 C37.67845884 -0.25918345 41.17311732 -0.27690942 44.66812515 -0.28463173 C46.63435945 -0.29278089 48.60051194 -0.31615582 50.56661987 -0.33988953 C60.39563477 -0.34171433 69.32241815 0.65184766 77.125 7.1015625 C89.41397439 19.54414907 92.1898654 37.63972741 92.125 54.375 C92.12886719 55.365 92.13273437 56.355 92.13671875 57.375 C92.11527583 73.62873456 89.13533043 91.03545162 77.734375 103.46484375 C70.86115867 109.54856901 63.72742822 111.13221458 54.71923828 111.11352539 C53.4984256 111.11344986 52.27761292 111.11337433 51.01980591 111.11329651 C49.71647308 111.10813522 48.41314026 111.10297394 47.0703125 111.09765625 C45.71125338 111.09578901 44.35219358 111.09436655 42.99313354 111.09336853 C39.43231314 111.08956748 35.87153413 111.07975802 32.31072998 111.06866455 C28.67070068 111.05839835 25.03066463 111.05385979 21.390625 111.04882812 C14.26039821 111.03813339 7.13020618 111.02055635 0 111 C0 102.75 0 94.5 0 86 C2.63379639 85.97812622 2.63379639 85.97812622 5.32080078 85.95581055 C11.13638416 85.90406618 16.9517311 85.83875517 22.76706123 85.76428509 C26.2912986 85.7196471 29.81542212 85.68037703 33.33984375 85.65356445 C37.39612711 85.62246652 41.4517954 85.56768038 45.5078125 85.51171875 C47.3971904 85.50213387 47.3971904 85.50213387 49.32473755 85.49235535 C50.50550873 85.47256119 51.68627991 85.45276703 52.90283203 85.43237305 C53.93763702 85.42126999 54.97244202 85.41016693 56.03860474 85.39872742 C59.54935935 84.9260333 61.966117 83.80493672 65 82 C66.72202019 79.70652908 66.72202019 79.70652908 67.8125 77.0625 C68.21082031 76.20785156 68.60914063 75.35320313 69.01953125 74.47265625 C71.442122 68.36309472 71.25579622 62.44331392 71.3125 55.9375 C71.34150391 54.85533203 71.37050781 53.77316406 71.40039062 52.65820312 C71.46577463 44.27396169 70.46997815 35.25306527 64.4375 28.875 C60.70862756 26.00663659 57.81436556 25.86290098 53.2434082 25.79467773 C52.06241043 25.77473251 50.88141266 25.75478729 49.66462708 25.73423767 C48.38955795 25.71752518 47.11448883 25.70081268 45.80078125 25.68359375 C44.49545944 25.66281265 43.19013763 25.64203156 41.84526062 25.62062073 C38.37817647 25.56547727 34.91103354 25.51603405 31.44384766 25.46777344 C27.90456931 25.4175019 24.36537611 25.36184537 20.82617188 25.30664062 C13.88418687 25.1991536 6.94212273 25.09818546 0 25 C0 16.75 0 8.5 0 0 Z " fill="#010101" transform="translate(1680,2176)"/>
<path d="M0 0 C9.03046148 5.25746045 14.80693758 12.50879627 17.6703186 22.46673584 C18.75028323 27.52491273 18.64800175 32.52804634 18.57421875 37.6796875 C18.57119751 38.69184326 18.56817627 39.70399902 18.56506348 40.74682617 C18.54951624 44.48236472 18.5076338 48.21775647 18.46875 51.953125 C18.406875 60.326875 18.345 68.700625 18.28125 77.328125 C-2.83875 77.328125 -23.95875 77.328125 -45.71875 77.328125 C-45.821875 68.665625 -45.925 60.003125 -46.03125 51.078125 C-46.07677002 48.36819336 -46.12229004 45.65826172 -46.16918945 42.86621094 C-46.18381325 40.68165315 -46.19654942 38.49708158 -46.20703125 36.3125 C-46.23261108 35.20793457 -46.25819092 34.10336914 -46.2845459 32.96533203 C-46.29012996 22.84701847 -43.49018109 13.27600224 -36.38671875 5.7890625 C-26.1183171 -3.20480686 -12.60802625 -5.81279132 0 0 Z " fill="#FEFEFE" transform="translate(1730.71875,2568.671875)"/>
<path d="M0 0 C6.6 0 13.2 0 20 0 C20 16.5 20 33 20 50 C47.72 50 75.44 50 104 50 C104 58.25 104 66.5 104 75 C76.28 75 48.56 75 20 75 C20 91.5 20 108 20 125 C13.4 125 6.8 125 0 125 C0 83.75 0 42.5 0 0 Z " fill="#000000" transform="translate(1665,1730)"/>
<path d="M0 0 C6.99792721 3.31791013 13.49367429 7.28212005 20.0625 11.375 C21.80072443 12.45260319 23.53975034 13.52890434 25.27885437 14.60508728 C26.45951011 15.33573068 27.63993956 16.06673986 28.82014465 16.79811096 C34.46437315 20.29404937 40.13623259 23.74386197 45.8125 27.1875 C51.45551641 30.61582873 57.09347621 34.05188613 62.71484375 37.515625 C63.63974609 38.08498779 64.56464844 38.65435059 65.51757812 39.2409668 C67.31369122 40.35615531 69.10303039 41.48234234 70.88476562 42.62036133 C76.12728846 45.95903549 76.12728846 45.95903549 81.75390625 48.55859375 C85.2314115 50.0552978 86.82741417 50.88281163 89 54 C91.51286742 61.45087122 92.10408913 69.66126314 89 77 C83.90433059 82.68014639 76.64186925 85.60614796 69.80273438 88.69140625 C66.06773968 90.43527137 62.68713317 92.55133844 59.25 94.8125 C57.97704514 95.61871031 56.70221505 96.42196536 55.42578125 97.22265625 C54.7395166 97.65465332 54.05325195 98.08665039 53.34619141 98.53173828 C39.63463928 107.11251606 25.81229116 115.52020717 12 123.9375 C11.02087646 124.5346582 10.04175293 125.13181641 9.03295898 125.74707031 C8.13520752 126.29331055 7.23745605 126.83955078 6.3125 127.40234375 C5.13107422 128.12151978 5.13107422 128.12151978 3.92578125 128.85522461 C2 130 2 130 0 131 C-3.12731025 106.64547003 -3.12731025 106.64547003 1.54394531 99.70654297 C6.00673166 95.81061568 11.4463324 93.69710996 16.86279297 91.43310547 C22.70404727 88.76476596 28.02658412 85.18606891 33.4375 81.75 C35.53846687 80.45005291 37.64129278 79.15310492 39.74609375 77.859375 C40.75913574 77.23224609 41.77217773 76.60511719 42.81591797 75.95898438 C45.0847224 74.56311819 47.35835916 73.17923762 49.64111328 71.80664062 C50.23956558 71.44459534 50.83801788 71.08255005 51.4546051 70.70953369 C53.13445828 69.69394675 54.81727206 68.68326162 56.50024414 67.67285156 C59.08553084 66.24111632 59.08553084 66.24111632 60 64 C59.03126953 63.66355469 59.03126953 63.66355469 58.04296875 63.3203125 C53.90557958 61.52514236 50.16108494 59.2168186 46.3125 56.875 C45.45615967 56.35728027 44.59981934 55.83956055 43.7175293 55.30615234 C40.80808942 53.5432783 37.9034636 51.77269919 35 50 C33.90042969 49.32904297 32.80085938 48.65808594 31.66796875 47.96679688 C28.21346777 45.85722345 24.76253159 43.74187253 21.3125 41.625 C20.22686768 40.95968262 19.14123535 40.29436523 18.02270508 39.60888672 C15.9569912 38.33730981 13.90079069 37.05011244 11.85571289 35.74560547 C9.07137225 33.97472649 9.07137225 33.97472649 6.25170898 32.69580078 C3.60304328 31.33856444 1.88834939 30.30884131 0 28 C-1.08731864 23.16229199 -0.85154246 18.55107404 -0.5625 13.625 C-0.52189453 12.31660156 -0.48128906 11.00820312 -0.43945312 9.66015625 C-0.33356047 6.43631326 -0.18580949 3.22006258 0 0 Z " fill="#020202" transform="translate(1680,1345)"/>
<path d="M0 0 C6.6 0 13.2 0 20 0 C20 30.69 20 61.38 20 93 C-9.37 93 -38.74 93 -69 93 C-69 84.75 -69 76.5 -69 68 C-46.23 68 -23.46 68 0 68 C0 45.56 0 23.12 0 0 Z " fill="#000000" transform="translate(1749,2299)"/>
<path d="M0 0 C6.6 0 13.2 0 20 0 C20 30.69 20 61.38 20 93 C-9.37 93 -38.74 93 -69 93 C-69 84.75 -69 76.5 -69 68 C-46.23 68 -23.46 68 0 68 C0 45.56 0 23.12 0 0 Z " fill="#000000" transform="translate(1749,1117)"/>
<path d="M0 0 C2.64 0 5.28 0 8 0 C9.53166168 4.08443115 8.63081652 7.79455657 8 12 C9.32 11.67 10.64 11.34 12 11 C12 29.81 12 48.62 12 68 C10.33333333 68 8.66666667 68 7 68 C6.67 68.99 6.34 69.98 6 71 C4.2312602 71.13513292 2.45956945 71.23205586 0.6875 71.3125 C-0.29863281 71.37050781 -1.28476563 71.42851562 -2.30078125 71.48828125 C-5 71 -5 71 -6.65625 68.828125 C-7.0996875 67.89484375 -7.543125 66.9615625 -8 66 C-8.52980469 65.09121094 -9.05960938 64.18242187 -9.60546875 63.24609375 C-10.38857422 61.85583984 -10.38857422 61.85583984 -11.1875 60.4375 C-11.71730469 59.50808594 -12.24710938 58.57867188 -12.79296875 57.62109375 C-14 55 -14 55 -14 51 C-15.65 50.67 -17.3 50.34 -19 50 C-19 45.71 -19 41.42 -19 37 C-17.68 37 -16.36 37 -15 37 C-15.061875 36.030625 -15.12375 35.06125 -15.1875 34.0625 C-15.15769211 26.65523934 -11.85903551 20.59637946 -8.20703125 14.3515625 C-6.19331655 10.42840311 -5.09306371 6.25672778 -4 2 C-2.68 2 -1.36 2 0 2 C0 1.34 0 0.68 0 0 Z " fill="#DD681D" transform="translate(1653,2598)"/>
<path d="M0 0 C1.13888672 0.04833984 1.13888672 0.04833984 2.30078125 0.09765625 C5.95228711 1.38255602 7.95141402 3.57505667 9.6875 6.9375 C10.37448289 11.00408703 10.26987517 15.00308928 10.17578125 19.1171875 C10.16870651 20.2850882 10.16163177 21.45298889 10.15434265 22.65628052 C10.12642017 26.37567993 10.06368052 30.09355783 10 33.8125 C9.97491459 36.33851988 9.95210185 38.86456343 9.93164062 41.390625 C9.87659965 47.57350028 9.79033723 53.75524243 9.6875 59.9375 C3.0875 59.9375 -3.5125 59.9375 -10.3125 59.9375 C-10.41148193 52.49938833 -10.48402403 45.06166129 -10.53222656 37.62304688 C-10.55232405 35.09335653 -10.57960668 32.56371254 -10.61425781 30.03417969 C-10.66285556 26.39506583 -10.68548812 22.756567 -10.703125 19.1171875 C-10.73409271 17.42467361 -10.73409271 17.42467361 -10.76568604 15.69796753 C-10.76745505 9.48760002 -10.58005323 5.61276229 -6.3125 0.9375 C-3.92900513 -0.25424743 -2.64326879 -0.17325627 0 0 Z " fill="#FDFDFD" transform="translate(1710.3125,1633.0625)"/>
<path d="M0 0 C0 10.23 0 20.46 0 31 C-4.44036188 29.51987937 -7.66186745 28.22746922 -11.6171875 25.9609375 C-12.63554688 25.38085938 -13.65390625 24.80078125 -14.703125 24.203125 C-15.74984375 23.59984375 -16.7965625 22.9965625 -17.875 22.375 C-18.94492188 21.76398438 -20.01484375 21.15296875 -21.1171875 20.5234375 C-23.74755755 19.0203689 -26.37500926 17.51243714 -29 16 C-26.51959832 13.20686794 -23.79921388 11.63452124 -20.52734375 9.86328125 C-19.46322266 9.28642578 -18.39910156 8.70957031 -17.30273438 8.11523438 C-16.19220703 7.52033203 -15.08167969 6.92542969 -13.9375 6.3125 C-12.82310547 5.70599609 -11.70871094 5.09949219 -10.56054688 4.47460938 C-2.26062465 0 -2.26062465 0 0 0 Z " fill="#F9F9F9" transform="translate(1731,1519)"/>
<path d="M0 0 C0.66 0 1.32 0 2 0 C2.06058594 0.81984375 2.12117188 1.6396875 2.18359375 2.484375 C2.26738281 3.56203125 2.35117188 4.6396875 2.4375 5.75 C2.51871094 6.81734375 2.59992188 7.8846875 2.68359375 8.984375 C2.88035743 11.81766826 2.88035743 11.81766826 3.54101562 13.7265625 C4.19658435 16.97371992 3.89619179 20.1122267 3.66015625 23.390625 C3.59144569 24.44754547 3.59144569 24.44754547 3.52134705 25.52581787 C3.37425755 27.76764643 3.21850113 30.00877569 3.0625 32.25 C2.96101557 33.77339944 2.86009767 35.29683673 2.75976562 36.8203125 C2.51307334 40.54733607 2.25860687 44.27378203 2 48 C-2.7734375 46.296875 -2.7734375 46.296875 -4.8125 43.625 C-6 41 -6 41 -6 37 C-7.65 36.67 -9.3 36.34 -11 36 C-11 31.71 -11 27.42 -11 23 C-9.68 23 -8.36 23 -7 23 C-7.061875 22.030625 -7.12375 21.06125 -7.1875 20.0625 C-7.17245717 12.61629837 -3.82542815 6.19983183 0 0 Z " fill="#B55B1E" transform="translate(1645,2612)"/>
<path d="M0 0 C2.64 0 5.28 0 8 0 C8.92902962 3.13075243 9.09327023 5.87432993 9.02734375 9.1328125 C9.01509766 10.10347656 9.00285156 11.07414062 8.99023438 12.07421875 C8.9549419 14.11595407 8.91585026 16.15762708 8.87304688 18.19921875 C8.86208984 19.16730469 8.85113281 20.13539063 8.83984375 21.1328125 C8.81458618 22.46143311 8.81458618 22.46143311 8.78881836 23.81689453 C8.78690681 26.21073187 8.78690681 26.21073187 11 28 C10.67 28.99 10.34 29.98 10 31 C9.67 30.67 9.34 30.34 9 30 C7.00041636 29.95919217 4.99954746 29.95745644 3 30 C3 31.32 3 32.64 3 34 C4.134375 34.309375 5.26875 34.61875 6.4375 34.9375 C10 36 10 36 11 37 C11.04080783 38.99958364 11.04254356 41.00045254 11 43 C9.515 43.495 9.515 43.495 8 44 C8 41.69 8 39.38 8 37 C7.071875 37.061875 6.14375 37.12375 5.1875 37.1875 C2 37 2 37 0.31640625 35.8515625 C-1.53919073 33.24161304 -1.32980443 31.35972601 -1.25 28.1875 C-1.22421875 27.12402344 -1.1984375 26.06054688 -1.171875 24.96484375 C-0.99521476 21.91745456 -0.66267238 18.9820257 0 16 C-0.99 16 -1.98 16 -3 16 C-3 11.71 -3 7.42 -3 3 C-2.01 2.67 -1.02 2.34 0 2 C0 1.34 0 0.68 0 0 Z " fill="#E96A17" transform="translate(1653,2598)"/>
<path d="M0 0 C0.66 0 1.32 0 2 0 C2 15.84 2 31.68 2 48 C0.68 47.67 -0.64 47.34 -2 47 C-2.05386629 44.87527424 -2.09273071 42.75016348 -2.125 40.625 C-2.14820313 39.44164063 -2.17140625 38.25828125 -2.1953125 37.0390625 C-2 34 -2 34 0 32 C0.16681109 28.91652174 0.16681109 28.91652174 0 26 C-2.64 25.01 -5.28 24.02 -8 23 C-8 19 -8 19 -7 18 C-5.00041636 17.95919217 -2.99954746 17.95745644 -1 18 C-1 17.34 -1 16.68 -1 16 C-1.33 15.67 -1.66 15.34 -2 15 C-2.12537741 12.85692104 -2.17574364 10.70921114 -2.1875 8.5625 C-2.20167969 7.38816406 -2.21585938 6.21382812 -2.23046875 5.00390625 C-2 2 -2 2 0 0 Z " fill="#828282" transform="translate(1663,2609)"/>
<path d="M0 0 C0.66 0.33 1.32 0.66 2 1 C1.67 5.29 1.34 9.58 1 14 C1.99 14 2.98 14 4 14 C4 18.29 4 22.58 4 27 C3.34 27 2.68 27 2 27 C2 28.65 2 30.3 2 32 C1.34 32 0.68 32 0 32 C0.01160156 32.67160156 0.02320313 33.34320312 0.03515625 34.03515625 C0.13755831 45.37252761 -0.45446325 56.67866146 -1 68 C-3 67 -3 67 -3.8515625 64.93359375 C-4.10679688 64.10988281 -4.36203125 63.28617188 -4.625 62.4375 C-4.88539062 61.61121094 -5.14578125 60.78492187 -5.4140625 59.93359375 C-5.60742188 59.29550781 -5.80078125 58.65742188 -6 58 C-4.68 58.66 -3.36 59.32 -2 60 C-2.01160156 58.73027344 -2.02320313 57.46054688 -2.03515625 56.15234375 C-2.10026678 45.71431242 -1.88271877 35.40347117 -1 25 C-1.33 25 -1.66 25 -2 25 C-3.00267437 15.93968942 -3.57849273 8.59242605 0 0 Z " fill="#EE7220" transform="translate(1649,2600)"/>
<path d="M0 0 C0.99 0 1.98 0 3 0 C4.00291936 3.00875809 4.09039517 4.90039805 4.02734375 8.03515625 C4.01509766 9.00904297 4.00285156 9.98292969 3.99023438 10.98632812 C3.95500997 13.04108501 3.9159325 15.09577937 3.87304688 17.15039062 C3.86208984 18.12298828 3.85113281 19.09558594 3.83984375 20.09765625 C3.81458618 21.43582397 3.81458618 21.43582397 3.78881836 22.80102539 C3.78472069 25.20890159 3.78472069 25.20890159 6 27 C5.67 27.99 5.34 28.98 5 30 C4.67 29.67 4.34 29.34 4 29 C2.00041636 28.95919217 -0.00045254 28.95745644 -2 29 C-2 30.32 -2 31.64 -2 33 C-0.865625 33.309375 0.26875 33.61875 1.4375 33.9375 C5 35 5 35 6 36 C6.04080783 37.99958364 6.04254356 40.00045254 6 42 C4.515 42.495 4.515 42.495 3 43 C3 40.69 3 38.38 3 36 C2.071875 36.061875 1.14375 36.12375 0.1875 36.1875 C-3 36 -3 36 -4.9375 34.9375 C-6.61676907 31.87530347 -5.68621125 29.30629059 -5 26 C-1.535 25.505 -1.535 25.505 2 25 C1.50886719 24.08154297 1.50886719 24.08154297 1.0078125 23.14453125 C-0.4345271 18.64420809 -0.21122084 14.37990364 -0.125 9.6875 C-0.11597656 8.75615234 -0.10695313 7.82480469 -0.09765625 6.86523438 C-0.07418263 4.5765564 -0.04134729 2.28841328 0 0 Z " fill="#9B4E1F" transform="translate(1658,2599)"/>
<path d="M0 0 C0.66 0 1.32 0 2 0 C3.33333333 1.33333333 4.66666667 2.66666667 6 4 C8.13309192 5.23512079 8.13309192 5.23512079 10 6 C9.505 7.051875 9.01 8.10375 8.5 9.1875 C7.17220212 12.25452609 6.69284994 14.62134936 7 18 C6.34 18 5.68 18 5 18 C5 18.66 5 19.32 5 20 C3.35 19.67 1.7 19.34 0 19 C-0.9154645 14.53795824 -0.97847873 10.65454615 -0.5625 6.125 C-0.46066406 4.97257812 -0.35882812 3.82015625 -0.25390625 2.6328125 C-0.17011719 1.76398437 -0.08632812 0.89515625 0 0 Z " fill="#F96503" transform="translate(1649,2632)"/>
<path d="M0 0 C1.984375 0.89453125 1.984375 0.89453125 4 3 C4.52614217 6.23390636 4.37422316 9.42186437 4.25 12.6875 C4.23195313 13.58017578 4.21390625 14.47285156 4.1953125 15.39257812 C4.14817759 17.59613504 4.08240657 19.79752601 4 22 C-0.59423843 20.54918786 -0.59423843 20.54918786 -2.29296875 18.25 C-3.18110438 15.42366783 -3.3013926 12.96197243 -3.3125 10 C-3.32925781 8.96875 -3.34601563 7.9375 -3.36328125 6.875 C-2.96081368 3.68988032 -2.13430263 2.34266462 0 0 Z " fill="#221710" transform="translate(1642,2637)"/>
<path d="M0 0 C0.90492187 0.02320312 1.80984375 0.04640625 2.7421875 0.0703125 C4.10730469 0.09738281 4.10730469 0.09738281 5.5 0.125 C6.19867187 0.14820312 6.89734375 0.17140625 7.6171875 0.1953125 C7.6171875 3.1653125 7.6171875 6.1353125 7.6171875 9.1953125 C6.6271875 9.1953125 5.6371875 9.1953125 4.6171875 9.1953125 C2.8846875 9.535625 2.8846875 9.535625 1.1171875 9.8828125 C-2.3828125 10.1953125 -2.3828125 10.1953125 -4.3828125 9.0703125 C-5.3828125 7.1953125 -5.3828125 7.1953125 -5.1953125 4.6328125 C-4.13876038 1.46315613 -3.41781205 0.28014853 0 0 Z " fill="#4F3728" transform="translate(1657.3828125,2656.8046875)"/>
<path d="M0 0 C2 2 2 2 2.1953125 5.6953125 C2.182009 7.17200108 2.15814835 8.64862358 2.125 10.125 C2.11597656 10.87910156 2.10695313 11.63320312 2.09765625 12.41015625 C2.0740687 14.27357254 2.03819719 16.13682593 2 18 C0.56666979 18.39063507 -0.87192679 18.76198474 -2.3125 19.125 C-3.51326172 19.43824219 -3.51326172 19.43824219 -4.73828125 19.7578125 C-7 20 -7 20 -10 18 C-10.1875 14.375 -10.1875 14.375 -10 11 C-9.34 11.66 -8.68 12.32 -8 13 C-5.93125966 13.6425235 -5.93125966 13.6425235 -4 14 C-4 13.34 -4 12.68 -4 12 C-3.34 12 -2.68 12 -2 12 C-2 10.35 -2 8.7 -2 7 C-2.66 6.67 -3.32 6.34 -4 6 C-3.01 6 -2.02 6 -1 6 C-0.67 4.02 -0.34 2.04 0 0 Z " fill="#F26E16" transform="translate(1658,2638)"/>
<path d="M0 0 C0.33 0 0.66 0 1 0 C1.05791844 3.12492251 1.09356746 6.24970766 1.125 9.375 C1.14175781 10.26445312 1.15851563 11.15390625 1.17578125 12.0703125 C1.18222656 12.92109375 1.18867187 13.771875 1.1953125 14.6484375 C1.20578613 15.43395996 1.21625977 16.21948242 1.22705078 17.02880859 C1 19 1 19 -1 21 C-2.32 21 -3.64 21 -5 21 C-5.52166881 13.39522799 -5.77395815 7.62498491 -1.19140625 1.29296875 C-0.60166016 0.65294922 -0.60166016 0.65294922 0 0 Z " fill="#251B15" transform="translate(1645,2613)"/>
<path d="M0 0 C0.33 0 0.66 0 1 0 C1.71148265 7.18050184 2.25818438 13.87028851 1 21 C-0.65 20.67 -2.3 20.34 -4 20 C-4 15.71 -4 11.42 -4 7 C-2.68 7 -1.36 7 0 7 C0 4.69 0 2.38 0 0 Z " fill="#DB915F" transform="translate(1638,2628)"/>
<path d="M0 0 C0.33 1.32 0.66 2.64 1 4 C0.34 3.67 -0.32 3.34 -1 3 C-2.99960012 2.960008 -5.00047242 2.95653201 -7 3 C-7 4.32 -7 5.64 -7 7 C-5.2984375 7.4640625 -5.2984375 7.4640625 -3.5625 7.9375 C0 9 0 9 1 10 C1.04080783 11.99958364 1.04254356 14.00045254 1 16 C0.01 16.33 -0.98 16.66 -2 17 C-2 14.69 -2 12.38 -2 10 C-2.928125 10.061875 -3.85625 10.12375 -4.8125 10.1875 C-8 10 -8 10 -9.9375 8.8125 C-11 7 -11 7 -10.9375 4.4375 C-10 2 -10 2 -8.3125 0.6875 C-5.46515091 -0.15900919 -2.95436294 -0.13428922 0 0 Z " fill="#482916" transform="translate(1663,2625)"/>
<path d="M0 0 C0.66 0.33 1.32 0.66 2 1 C1.67 5.29 1.34 9.58 1 14 C1.99 14 2.98 14 4 14 C3.67 16.97 3.34 19.94 3 23 C2.01 23 1.02 23 0 23 C-0.04898437 22.14535156 -0.09796875 21.29070313 -0.1484375 20.41015625 C-0.26058594 18.75306641 -0.26058594 18.75306641 -0.375 17.0625 C-0.44460938 15.96035156 -0.51421875 14.85820312 -0.5859375 13.72265625 C-0.72257812 12.82417969 -0.85921875 11.92570312 -1 11 C-1.66 10.67 -2.32 10.34 -3 10 C-2.01 6.7 -1.02 3.4 0 0 Z " fill="#E38C51" transform="translate(1649,2600)"/>
<path d="M0 0 C0.99 0 1.98 0 3 0 C3 0.66 3 1.32 3 2 C3.66 2 4.32 2 5 2 C5 3.65 5 5.3 5 7 C4.34 7 3.68 7 3 7 C3 7.66 3 8.32 3 9 C1.35 8.67 -0.3 8.34 -2 8 C-2.33 6.02 -2.66 4.04 -3 2 C-2.01 2 -1.02 2 0 2 C0 1.34 0 0.68 0 0 Z " fill="#D35709" transform="translate(1651,2643)"/>
<path d="M0 0 C0.99 0.495 0.99 0.495 2 1 C2.625 3.5625 2.625 3.5625 3 6 C5.31 6.66 7.62 7.32 10 8 C11.25818438 15.12971149 10.71148265 21.81949816 10 29 C10.66 29.33 11.32 29.66 12 30 C11.01 30 10.02 30 9 30 C8.67 23.4 8.34 16.8 8 10 C6.35 9.67 4.7 9.34 3 9 C2.01 8.34 1.02 7.68 0 7 C-0.1875 3.375 -0.1875 3.375 0 0 Z " fill="#CE6D2E" transform="translate(1651,2627)"/>
<path d="M0 0 C1.32 0 2.64 0 4 0 C4 3.96 4 7.92 4 12 C2.68 12.33 1.36 12.66 0 13 C0 8.71 0 4.42 0 0 Z " fill="#703B18" transform="translate(1650,2601)"/>
<path d="M0 0 C2.31 0 4.62 0 7 0 C7.93423645 3.01031744 8.04449911 3.86650268 7 7 C3.5625 6.1875 3.5625 6.1875 0 5 C-0.33 4.01 -0.66 3.02 -1 2 C-0.67 1.34 -0.34 0.68 0 0 Z " fill="#9C9B9A" transform="translate(1655,2659)"/>
<path d="M0 0 C0.33 0 0.66 0 1 0 C1 9.24 1 18.48 1 28 C-1 27 -1 27 -1.8515625 24.93359375 C-2.10679688 24.10988281 -2.36203125 23.28617188 -2.625 22.4375 C-2.88539062 21.61121094 -3.14578125 20.78492187 -3.4140625 19.93359375 C-3.70410156 18.97646484 -3.70410156 18.97646484 -4 18 C-2.02 18.99 -2.02 18.99 0 20 C0 13.4 0 6.8 0 0 Z " fill="#E2803E" transform="translate(1647,2640)"/>
<path d="M0 0 C0.94875 0.04125 1.8975 0.0825 2.875 0.125 C3.5 2 3.5 2 3.875 4.125 C1.875 6.125 1.875 6.125 -0.75 6.25 C-1.53375 6.20875 -2.3175 6.1675 -3.125 6.125 C-3.785 4.805 -4.445 3.485 -5.125 2.125 C-3.125 0.125 -3.125 0.125 0 0 Z " fill="#92918F" transform="translate(1659.125,2626.875)"/>
<path d="M0 0 C0.66 0 1.32 0 2 0 C2 4.95 2 9.9 2 15 C1.01 14.67 0.02 14.34 -1 14 C-1.02685938 11.85423363 -1.04633088 9.70837355 -1.0625 7.5625 C-1.07410156 6.36753906 -1.08570313 5.17257813 -1.09765625 3.94140625 C-1 1 -1 1 0 0 Z " fill="#FEF9ED" transform="translate(1662,2610)"/>
<path d="M0 0 C0.66 0 1.32 0 2 0 C2 4.95 2 9.9 2 15 C1.01 14.67 0.02 14.34 -1 14 C-1.02685938 11.85423363 -1.04633088 9.70837355 -1.0625 7.5625 C-1.07410156 6.36753906 -1.08570313 5.17257813 -1.09765625 3.94140625 C-1 1 -1 1 0 0 Z " fill="#FEFAEC" transform="translate(1662,2642)"/>
<path d="M0 0 C1.34794719 2.69589439 0.40931243 4.03077388 -0.453125 6.78125 C-1.51861696 11.10410309 -1.69551729 15.56897527 -2 20 C-2.66 20 -3.32 20 -4 20 C-4.738041 6.3667426 -4.738041 6.3667426 0 0 Z " fill="#322F33" transform="translate(1644,2614)"/>
<path d="M0 0 C0.33 0 0.66 0 1 0 C1 3.63 1 7.26 1 11 C2.98 10.34 4.96 9.68 7 9 C6.34 11.31 5.68 13.62 5 16 C2 16 2 16 0 15 C0 10.05 0 5.1 0 0 Z " fill="#86502F" transform="translate(1639,2623)"/>
<path d="M0 0 C0 2.64 0 5.28 0 8 C-1.32 8.33 -2.64 8.66 -4 9 C-4 6.36 -4 3.72 -4 1 C-1 0 -1 0 0 0 Z " fill="#39281F" transform="translate(1665,2601)"/>
<path d="M0 0 C0.66 0.66 1.32 1.32 2 2 C4.06874034 2.6425235 4.06874034 2.6425235 6 3 C5.34 4.98 4.68 6.96 4 9 C2.68 8.34 1.36 7.68 0 7 C0 4.69 0 2.38 0 0 Z " fill="#F56608" transform="translate(1648,2649)"/>
<path d="M0 0 C0.33 0 0.66 0 1 0 C1.99 5.61 2.98 11.22 4 17 C0.03586801 13.03586801 0.03586801 13.03586801 -0.09765625 9.1796875 C-0.08605469 8.08914062 -0.07445312 6.99859375 -0.0625 5.875 C-0.05347656 4.77929688 -0.04445313 3.68359375 -0.03515625 2.5546875 C-0.02355469 1.71164063 -0.01195312 0.86859375 0 0 Z " fill="#805237" transform="translate(1639,2641)"/>
<path d="M0 0 C1.32 0 2.64 0 4 0 C5.05404945 3.98196457 4.84098656 6.98195309 4 11 C2.68 10.67 1.36 10.34 0 10 C0.99 10 1.98 10 3 10 C3 7.69 3 5.38 3 3 C2.01 3 1.02 3 0 3 C0 2.01 0 1.02 0 0 Z " fill="#E6752A" transform="translate(1635,2636)"/>
<path d="M0 0 C1.32 0.33 2.64 0.66 4 1 C4 2.65 4 4.3 4 6 C2.68 6.33 1.36 6.66 0 7 C0 4.69 0 2.38 0 0 Z " fill="#923909" transform="translate(1652,2644)"/>
<path d="M0 0 C0.99 1.32 1.98 2.64 3 4 C2.34 4 1.68 4 1 4 C1 5.32 1 6.64 1 8 C0.01 8 -0.98 8 -2 8 C-2.125 5.125 -2.125 5.125 -2 2 C-1.34 1.34 -0.68 0.68 0 0 Z " fill="#412D23" transform="translate(1642,2637)"/>
<path d="M0 0 C1.485 0.99 1.485 0.99 3 2 C3.1875 5.125 3.1875 5.125 3 8 C2.01 8.33 1.02 8.66 0 9 C0 6.03 0 3.06 0 0 Z " fill="#32170A" transform="translate(1661,2633)"/>
<path d="M0 0 C0.99 0 1.98 0 3 0 C3 2.31 3 4.62 3 7 C2.01 7 1.02 7 0 7 C0 4.69 0 2.38 0 0 Z " fill="#F59855" transform="translate(1635,2639)"/>
<path d="M0 0 C1.98 0 3.96 0 6 0 C5.67 1.32 5.34 2.64 5 4 C3.68 4 2.36 4 1 4 C0.67 2.68 0.34 1.36 0 0 Z " fill="#ACACAC" transform="translate(1657,2628)"/>
<path d="M0 0 C0.33 0 0.66 0 1 0 C0.67 2.97 0.34 5.94 0 9 C-0.66 9 -1.32 9 -2 9 C-2.125 5.625 -2.125 5.625 -2 2 C-1.34 1.34 -0.68 0.68 0 0 Z " fill="#FEECCE" transform="translate(1652,2614)"/>
<path d="M0 0 C0.66 0 1.32 0 2 0 C4.42857143 7.42857143 4.42857143 7.42857143 3 11 C0 4.5 0 4.5 0 0 Z " fill="#342721" transform="translate(1641,2648)"/>
<path d="M0 0 C1.37245106 2.74490212 0.93580311 4.12060581 0 7 C-2.0625 8.3125 -2.0625 8.3125 -4 9 C-2.94124926 5.59687262 -1.99097846 2.98646769 0 0 Z " fill="#3C3F44" transform="translate(1644,2614)"/>
</svg>
